<svg width="15" height="16" viewBox="0 0 15 16" fill="none" xmlns="http://www.w3.org/2000/svg">
<path d="M6.78552 1.19415L6.85291 0.698708H6.85291L6.78552 1.19415ZM10.0606 1.63961L9.99326 2.13505L10.0606 1.63961ZM10.0606 14.3604L10.128 14.8558L10.0606 14.3604ZM6.78552 14.8059L6.71813 14.3104L6.78552 14.8059ZM3.82146 14.7018L3.50309 15.0874H3.50309L3.82146 14.7018ZM13.439 13.3613L13.8086 13.698L13.439 13.3613ZM13.439 2.63867L13.8086 2.30196V2.30196L13.439 2.63867ZM3.82146 1.29817L4.13982 1.68371L4.13982 1.68371L3.82146 1.29817ZM10.1765 8L10.5593 8.32165L10.8295 8L10.5593 7.67835L10.1765 8ZM1 7.5C0.723858 7.5 0.5 7.72386 0.5 8C0.5 8.27614 0.723858 8.5 1 8.5V7.5ZM6.78552 1.19415L6.71814 1.68958L9.99326 2.13505L10.0606 1.63961L10.128 1.14417L6.85291 0.698708L6.78552 1.19415ZM14 5.96414H13.5V10.0359H14H14.5V5.96414H14ZM10.0606 14.3604L9.99325 13.865L6.71813 14.3104L6.78552 14.8059L6.85291 15.3013L10.128 14.8558L10.0606 14.3604ZM3.29412 4.45569H3.79412V4.07717H3.29412H2.79412V4.45569H3.29412ZM3.29412 11.9228H3.79412V11.6884H3.29412H2.79412V11.9228H3.29412ZM6.78552 14.8059L6.71813 14.3104C5.89164 14.4228 5.3218 14.4993 4.8912 14.5C4.47221 14.5007 4.27459 14.4276 4.13982 14.3163L3.82146 14.7018L3.50309 15.0874C3.89566 15.4115 4.36783 15.5009 4.89291 15.5C5.40639 15.4991 6.05492 15.4098 6.85291 15.3013L6.78552 14.8059ZM3.29412 11.9228H2.79412C2.79412 12.6881 2.79282 13.318 2.86543 13.8082C2.94059 14.3156 3.10592 14.7594 3.50309 15.0874L3.82146 14.7018L4.13982 14.3163C4.00965 14.2088 3.91131 14.0443 3.85464 13.6617C3.79541 13.2618 3.79412 12.7199 3.79412 11.9228H3.29412ZM14 10.0359H13.5C13.5 10.9527 13.499 11.5912 13.4342 12.0793C13.3716 12.5513 13.2562 12.8195 13.0694 13.0246L13.439 13.3613L13.8086 13.698C14.1828 13.2872 14.3479 12.7959 14.4255 12.2108C14.501 11.6417 14.5 10.9254 14.5 10.0359H14ZM10.0606 14.3604L10.128 14.8558C11.0548 14.7298 11.7944 14.63 12.37 14.4798C12.9572 14.3266 13.4369 14.1061 13.8086 13.698L13.439 13.3613L13.0694 13.0246C12.88 13.2324 12.6096 13.3838 12.1175 13.5122C11.6138 13.6437 10.9447 13.7355 9.99325 13.865L10.0606 14.3604ZM10.0606 1.63961L9.99326 2.13505C10.9447 2.26446 11.6138 2.35632 12.1175 2.48778C12.6096 2.61623 12.88 2.76755 13.0694 2.97538L13.439 2.63867L13.8086 2.30196C13.4369 1.89392 12.9572 1.67345 12.37 1.52019C11.7944 1.36995 11.0548 1.27022 10.128 1.14417L10.0606 1.63961ZM14 5.96414H14.5C14.5 5.07461 14.501 4.35825 14.4255 3.7892C14.3479 3.20408 14.1828 2.71275 13.8086 2.30196L13.439 2.63867L13.0694 2.97538C13.2562 3.18046 13.3716 3.44868 13.4342 3.92072C13.499 4.40883 13.5 5.04728 13.5 5.96414H14ZM6.78552 1.19415L6.85291 0.698708C6.05492 0.59017 5.40639 0.500885 4.89291 0.500007C4.36783 0.499109 3.89567 0.588456 3.50309 0.912622L3.82146 1.29817L4.13982 1.68371C4.27459 1.57243 4.47221 1.49929 4.89121 1.50001C5.32181 1.50074 5.89164 1.57717 6.71814 1.68958L6.78552 1.19415ZM3.29412 4.07717H3.79412C3.79412 3.28012 3.79541 2.73818 3.85464 2.33833C3.91131 1.95573 4.00965 1.7912 4.13982 1.68371L3.82146 1.29817L3.50309 0.912622C3.10592 1.24058 2.94059 1.68437 2.86543 2.19181C2.79282 2.68201 2.79412 3.31185 2.79412 4.07717H3.29412ZM7.11765 4.35963L6.73484 4.68129L9.79367 8.32165L10.1765 8L10.5593 7.67835L7.50045 4.03798L7.11765 4.35963ZM10.1765 8L9.79367 7.67835L6.73484 11.3187L7.11765 11.6404L7.50045 11.962L10.5593 8.32165L10.1765 8ZM10.1765 8V7.5H1V8V8.5H10.1765V8Z" fill="#585858"/>
</svg>
